<?xml version="1.0" standalone="no"?>
<!DOCTYPE svg PUBLIC "-//W3C//DTD SVG 20010904//EN"
 "http://www.w3.org/TR/2001/REC-SVG-20010904/DTD/svg10.dtd">
<svg version="1.0" xmlns="http://www.w3.org/2000/svg"
 width="321.000000pt" height="321.000000pt" viewBox="0 0 321.000000 321.000000"
 preserveAspectRatio="xMidYMid meet">
<metadata>
Created by potrace 1.14, written by Peter Selinger 2001-2017
</metadata>
<g transform="translate(0.000000,321.000000) scale(0.100000,-0.100000)"
fill="#000000" stroke="none">
<path d="M1510 3119 c-41 -16 -102 -39 -135 -50 -33 -12 -120 -50 -193 -85
-408 -195 -822 -534 -1104 -904 l-57 -75 5 -75 c2 -41 9 -109 14 -150 11 -78
11 -82 30 -190 13 -75 77 -320 121 -465 34 -109 146 -414 159 -430 5 -5 26
-51 48 -100 52 -119 167 -349 200 -402 22 -35 33 -43 67 -49 22 -3 47 -8 55
-9 79 -14 217 -35 265 -41 33 -3 62 -8 65 -9 3 -2 29 -6 59 -10 30 -4 63 -8
74 -10 158 -31 751 -24 902 9 11 3 43 8 70 11 161 20 410 61 423 69 28 17 178
311 266 521 26 61 51 118 57 128 42 75 183 529 213 687 3 14 7 34 9 45 3 11 8
40 12 65 4 25 9 54 11 65 18 83 23 120 29 190 4 44 8 94 10 111 3 26 -10 49
-78 140 -87 115 -364 403 -457 473 -30 22 -80 62 -110 86 -88 73 -363 244
-492 307 -65 32 -174 79 -241 104 -67 25 -137 52 -155 60 -43 18 -53 17 -142
-17z m173 -33 c85 -29 227 -86 314 -126 132 -61 454 -260 530 -327 44 -39 60
-52 126 -103 91 -71 336 -325 416 -432 47 -62 73 -108 74 -125 1 -27 -12 -193
-18 -223 -2 -8 -6 -35 -10 -60 -30 -199 -109 -509 -179 -696 -100 -271 -301
-707 -368 -797 -12 -16 -60 -27 -238 -53 -19 -3 -46 -7 -60 -9 -14 -3 -50 -7
-80 -11 -30 -3 -82 -9 -115 -14 -208 -32 -702 -34 -895 -5 -14 2 -54 7 -90 10
-36 4 -73 9 -84 11 -10 2 -44 6 -75 10 -31 3 -74 10 -96 14 -22 5 -60 12 -85
15 -25 4 -52 9 -60 10 -8 2 -20 4 -27 4 -27 2 -151 234 -258 486 -26 61 -51
115 -55 120 -10 14 -103 275 -133 375 -56 185 -104 388 -142 608 -2 15 -7 70
-11 122 -4 52 -8 97 -10 99 -2 2 2 9 9 16 7 7 26 30 42 51 194 248 364 415
641 626 150 115 463 286 649 356 167 63 190 71 203 71 8 1 46 -10 85 -23z"/>
<path d="M1440 3020 c-74 -28 -182 -73 -239 -102 -120 -59 -362 -204 -431
-257 -254 -196 -461 -396 -591 -571 l-78 -104 4 -71 c6 -83 12 -139 25 -220 5
-33 12 -78 15 -100 9 -58 53 -246 83 -350 77 -268 235 -650 363 -882 31 -56
59 -109 62 -118 9 -23 47 -34 196 -56 75 -11 147 -22 161 -24 43 -6 150 -19
275 -32 175 -18 614 -9 795 17 36 5 88 12 115 15 28 3 75 10 105 15 30 5 73
12 95 15 78 12 90 14 114 19 31 7 28 3 88 114 103 189 168 330 243 524 29 73
58 147 65 163 29 68 112 354 131 450 2 11 8 40 14 65 13 62 19 96 26 155 3 28
8 53 10 56 4 7 17 155 18 210 1 29 -11 53 -59 120 -81 113 -315 358 -420 438
-18 14 -66 53 -106 87 -130 107 -358 249 -538 335 -120 57 -344 139 -378 139
-15 -1 -89 -23 -163 -50z m346 -69 c266 -104 545 -272 775 -465 147 -123 328
-307 422 -430 l67 -89 -5 -71 c-13 -167 -61 -430 -109 -596 -60 -209 -245
-689 -286 -745 -4 -5 -38 -70 -75 -143 -47 -92 -75 -136 -90 -142 -28 -11
-280 -49 -430 -65 -33 -4 -76 -8 -95 -11 -201 -24 -488 -23 -730 2 -79 8 -396
52 -453 62 -26 5 -47 7 -47 4 0 -2 -7 1 -15 8 -29 24 -165 291 -240 470 -26
63 -52 124 -56 135 -5 11 -20 49 -33 85 -13 36 -30 79 -37 95 -6 17 -13 35
-15 40 -1 6 -9 30 -17 55 -17 51 -57 185 -62 209 -2 9 -12 54 -23 101 -11 47
-23 101 -26 120 -42 249 -53 369 -35 402 39 74 291 349 425 464 99 85 241 193
332 252 229 148 604 317 687 309 22 -2 99 -27 171 -56z"/>
<path d="M1433 2683 c9 -11 29 -48 44 -84 25 -58 27 -76 27 -184 0 -109 -2
-125 -26 -177 -15 -32 -40 -78 -57 -102 -17 -25 -28 -46 -24 -49 5 -2 31 -2
60 -2 l52 2 -19 -27 c-47 -66 -138 -122 -240 -150 -61 -16 -187 -13 -272 7
l-73 17 110 11 c163 17 242 45 327 112 l37 30 -342 -1 -342 0 1 -825 c1 -454
2 -829 3 -833 0 -4 408 -7 906 -7 l905 -1 1 28 c0 15 1 389 2 832 l1 805 -30
1 c-16 1 -34 2 -41 3 -6 1 -18 23 -26 49 -17 60 -79 155 -118 183 -31 22 -37
16 -13 -16 19 -26 54 -139 54 -176 0 -31 14 -41 58 -43 23 -1 28 -7 33 -41 19
-111 -10 -245 -86 -401 -44 -91 -66 -124 -123 -181 -38 -38 -84 -75 -101 -82
-17 -8 -31 -17 -31 -21 0 -12 -119 -59 -175 -69 -27 -6 -84 -8 -125 -7 -79 3
-200 24 -200 35 0 3 33 6 73 7 95 1 138 9 222 41 101 38 130 56 248 153 34 27
107 137 142 213 40 87 61 170 70 278 l6 76 -43 -1 -43 -1 -7 -70 c-27 -277
-192 -504 -417 -576 -83 -27 -223 -32 -316 -13 -103 22 -102 29 3 30 269 3
477 139 593 389 36 76 59 156 59 205 0 36 0 36 -45 37 -43 1 -45 0 -46 -28 -1
-16 -2 -32 -3 -36 -1 -5 -5 -26 -10 -48 -11 -62 -81 -195 -128 -246 -78 -84
-179 -149 -281 -180 -73 -22 -260 -20 -322 3 l-40 15 75 0 c105 0 164 10 240
40 188 75 317 220 367 415 17 65 18 67 48 66 53 -1 55 0 55 45 0 94 -54 224
-126 304 l-44 48 24 -45 c34 -65 59 -173 59 -263 1 -81 -7 -98 -42 -92 -9 2
-21 4 -27 4 -6 1 -9 31 -8 84 4 105 -16 181 -67 267 -38 64 -82 120 -95 120
-3 0 3 -16 15 -35 47 -79 71 -266 49 -373 -13 -59 -19 -66 -62 -64 -34 1 -36
-1 -67 -65 -39 -81 -126 -170 -203 -206 -69 -33 -138 -45 -234 -42 -76 3 -218
30 -226 43 -2 4 35 6 82 4 159 -6 290 36 392 126 42 37 100 115 100 134 0 3
-18 5 -41 4 -22 -1 -42 1 -45 5 -2 4 7 31 20 60 58 132 62 286 9 399 -32 69
-73 119 -113 140 -24 13 -25 12 -7 -7z m479 -623 c-3 -29 -52 -126 -93 -187
-66 -96 -198 -185 -315 -212 -87 -21 -228 -18 -284 6 -8 3 -24 8 -34 10 -43 8
-25 13 50 14 84 1 101 2 179 20 106 25 219 91 277 161 45 55 92 133 108 178
12 35 14 36 64 35 48 0 51 -2 48 -25z m-898 -889 c18 -15 21 -44 6 -72 -8 -13
-21 -19 -45 -19 -33 0 -35 -2 -35 -33 0 -23 -5 -34 -15 -34 -17 0 -17 -1 -17
72 0 108 -3 101 46 100 24 0 51 -7 60 -14z m178 -9 c22 -21 30 -77 15 -108
-19 -44 -93 -56 -133 -23 -37 30 -23 132 20 149 30 13 76 4 98 -18z m228 -60
c0 -72 -3 -89 -15 -89 -17 0 -17 -2 -19 92 -1 66 3 76 32 84 1 1 2 -39 2 -87z
m147 71 c2 -6 -6 -13 -19 -15 -21 -3 -23 -9 -28 -72 -3 -43 -10 -71 -17 -74
-10 -3 -13 16 -13 73 0 72 -1 77 -20 72 -20 -5 -35 6 -26 21 7 12 119 8 123
-5z m141 8 c6 0 12 -7 12 -14 0 -9 -14 -12 -45 -10 -39 2 -45 0 -45 -17 0 -17
7 -20 40 -20 29 0 40 -4 40 -15 0 -16 -7 -18 -52 -17 -23 1 -28 -4 -28 -24 0
-22 4 -24 45 -24 31 0 45 -4 45 -13 0 -10 -17 -14 -65 -13 l-65 0 0 82 c0 50
4 84 11 86 9 3 69 3 107 -1z m74 -31 c-1 -38 4 -38 37 1 15 17 39 32 55 33
l27 3 -30 -30 c-17 -16 -31 -35 -31 -42 0 -6 14 -31 30 -53 17 -23 29 -42 28
-43 -30 -9 -42 -3 -65 32 -19 29 -29 37 -37 29 -11 -11 -13 -16 -15 -50 0 -11
-8 -20 -16 -20 -12 0 -15 16 -15 84 0 58 4 86 13 89 17 6 20 1 19 -33z m204
-22 l29 -50 5 54 c8 81 25 59 28 -36 2 -76 1 -84 -15 -82 -10 2 -33 27 -50 57
l-33 54 0 -58 c0 -43 -3 -58 -12 -55 -9 3 -14 33 -16 90 -3 80 -1 86 16 81 10
-2 32 -27 48 -55z m132 -18 c3 -82 -1 -102 -21 -94 -10 3 -13 25 -11 82 2 98
2 94 17 90 8 -3 13 -30 15 -78z m72 38 l0 -30 40 36 c58 52 85 48 34 -5 l-26
-28 32 -55 c21 -37 27 -56 18 -56 -19 0 -31 11 -54 48 -23 36 -39 30 -46 -18
-1 -14 -10 -25 -18 -25 -12 0 -15 15 -15 75 -1 73 8 105 26 94 5 -3 9 -19 9
-36z m-914 -38 l-1 -70 42 0 c29 0 43 -4 43 -13 0 -10 -16 -13 -57 -13 l-58 1
-1 83 c-1 71 1 82 16 82 14 0 17 -10 16 -70z m-306 -215 c17 -30 33 -55 34
-55 2 0 2 20 1 45 -2 46 8 75 22 62 4 -5 9 -44 10 -88 2 -76 1 -80 -19 -77
-13 2 -30 21 -46 50 -14 26 -28 45 -31 43 -4 -2 -6 -24 -5 -49 1 -37 -2 -46
-15 -46 -14 0 -16 11 -15 73 3 100 2 97 18 97 8 0 29 -25 46 -55z m230 40 c0
-11 -12 -15 -45 -15 -25 0 -45 -4 -45 -10 0 -5 0 -13 0 -17 0 -5 12 -9 28 -9
15 -1 35 -2 44 -3 11 -1 15 -7 12 -15 -4 -10 -18 -13 -45 -11 -21 2 -40 -1
-40 -6 -6 -42 -4 -44 40 -44 27 0 46 -5 48 -12 4 -12 -14 -15 -87 -15 -11 0
-24 0 -30 1 -6 1 -10 37 -10 86 l0 85 65 0 c51 0 65 -3 65 -15z m162 -7 c21
-21 21 -23 4 -26 -10 -2 -23 1 -29 7 -15 15 -50 14 -65 -1 -13 -13 -16 -67 -4
-84 10 -15 40 -24 57 -18 22 9 18 34 -5 34 -13 0 -18 5 -13 16 8 23 78 15 77
-8 -1 -10 -2 -26 -3 -36 -1 -22 -56 -42 -94 -35 -67 13 -86 118 -30 161 27 20
80 15 105 -10z m172 7 c-4 -10 -20 -15 -49 -15 -37 0 -42 -3 -38 -19 3 -14 13
-18 34 -17 16 1 35 -1 42 -6 18 -12 -10 -27 -44 -23 -22 3 -28 -1 -32 -21 -4
-25 -4 -26 52 -28 19 0 36 -6 38 -13 5 -13 -34 -20 -89 -14 l-37 3 1 77 c0 42
3 79 5 84 2 4 31 7 63 7 49 0 58 -3 54 -15z m156 -5 c21 -21 18 -46 -7 -67
-13 -10 -11 -16 8 -42 14 -20 19 -35 13 -41 -12 -12 -24 -3 -53 38 -30 43 -51
42 -51 -4 0 -28 -4 -35 -17 -32 -15 3 -18 15 -18 73 0 39 1 76 3 83 7 21 99
15 122 -8z m80 -65 c0 -74 -2 -85 -17 -85 -16 0 -18 10 -17 77 2 97 1 93 19
93 12 0 15 -16 15 -85z m-772 -226 c-2 -76 -13 -99 -51 -99 -29 0 -43 10 -51
38 -6 18 -4 22 14 22 12 0 18 -5 15 -10 -3 -6 1 -13 10 -17 24 -9 31 9 31 77
-1 50 2 60 16 60 15 0 17 -10 16 -71z m154 -4 c15 -38 27 -76 28 -82 0 -21
-28 -15 -35 7 -5 15 -15 20 -40 20 -24 0 -38 -6 -45 -20 -6 -11 -17 -20 -25
-20 -19 0 -19 -2 6 67 12 32 26 68 30 81 7 17 15 22 31 20 18 -2 29 -19 50
-73z m88 38 l0 -38 31 38 c19 23 39 37 54 37 23 0 23 0 -6 -31 l-28 -30 27
-50 c15 -27 30 -49 33 -49 3 0 20 36 38 80 44 107 59 107 100 0 17 -43 31 -82
31 -85 0 -14 -31 -3 -40 15 -7 13 -21 20 -40 20 -19 0 -33 -7 -40 -20 -8 -15
-21 -20 -50 -20 -35 0 -41 4 -61 39 -26 47 -49 44 -49 -5 0 -26 -4 -34 -17
-34 -16 0 -18 11 -18 85 0 74 2 85 17 85 14 0 18 -8 18 -37z m428 25 c19 -19
14 -55 -9 -71 -16 -12 -18 -17 -7 -24 12 -8 38 -47 38 -58 0 -3 -8 -5 -17 -5
-10 0 -27 14 -38 31 -11 17 -28 35 -37 40 -19 10 -20 8 -22 -41 -1 -15 -8 -26
-18 -28 -16 -3 -18 6 -18 82 l0 86 58 0 c32 0 63 -5 70 -12z m160 0 c-3 -7
-15 -14 -27 -16 -18 -3 -22 -9 -21 -35 4 -75 0 -107 -15 -107 -11 0 -15 17
-17 73 -3 68 -4 72 -25 71 -13 -1 -23 4 -23 12 0 11 17 14 66 14 48 0 65 -3
62 -12z m102 8 c0 -3 13 -41 30 -85 27 -75 28 -81 11 -81 -10 0 -21 9 -24 20
-4 15 -14 20 -42 20 -28 0 -38 -5 -42 -20 -3 -11 -14 -20 -24 -20 -17 0 -17 6
11 82 17 45 30 83 30 85 0 2 11 3 25 3 14 0 25 -2 25 -4z"/>
<path d="M940 1136 c0 -21 5 -26 24 -26 13 0 27 7 30 16 8 20 8 21 -27 29 -24
6 -27 5 -27 -19z"/>
<path d="M1100 1145 c-16 -19 -15 -71 1 -91 14 -17 51 -18 67 -2 20 20 15 86
-7 98 -27 14 -46 13 -61 -5z"/>
<path d="M1600 901 c0 -17 6 -21 36 -21 28 0 35 3 32 18 -2 11 -14 18 -36 20
-27 3 -32 0 -32 -17z"/>
<path d="M1086 648 c-9 -34 -8 -35 18 -35 24 0 24 0 8 26 -9 14 -17 27 -18 29
-1 1 -4 -8 -8 -20z"/>
<path d="M1430 651 c0 -5 -3 -16 -6 -25 -4 -12 0 -16 16 -16 16 0 20 4 16 16
-3 9 -6 20 -6 25 0 5 -4 9 -10 9 -5 0 -10 -4 -10 -9z"/>
<path d="M1600 681 c-37 -9 -39 -41 -3 -41 15 0 35 5 43 10 23 14 -8 38 -40
31z"/>
<path d="M1896 646 c-8 -32 -4 -39 17 -34 13 2 13 8 3 33 l-13 30 -7 -29z"/>
<path d="M1599 2584 c53 -82 66 -136 65 -264 0 -92 -5 -127 -22 -174 -12 -33
-22 -60 -22 -61 0 -4 102 3 107 9 3 3 11 34 18 68 31 168 -21 357 -119 431
-54 41 -57 40 -27 -9z"/>
<path d="M1024 2510 c-124 -27 -168 -185 -76 -274 108 -106 292 -33 292 116 0
105 -106 182 -216 158z"/>
<path d="M2105 2388 c5 -7 16 -24 26 -38 24 -35 48 -124 53 -195 2 -33 5 -63
5 -66 1 -3 16 -5 34 -4 32 2 32 2 30 52 -3 67 -35 151 -79 201 -36 43 -85 78
-69 50z"/>
</g>
</svg>
